<?xml version="1.0" standalone="no"?>
<!DOCTYPE svg PUBLIC "-//W3C//DTD SVG 20010904//EN"
 "http://www.w3.org/TR/2001/REC-SVG-20010904/DTD/svg10.dtd">
<svg version="1.0" xmlns="http://www.w3.org/2000/svg"
 width="739.000000pt" height="415.000000pt" viewBox="0 0 739.000000 415.000000"
 preserveAspectRatio="xMidYMid meet">

<g transform="translate(0.000000,415.000000) scale(0.100000,-0.100000)"
fill="#000000" stroke="none">
<path d="M3970 2755 l0 -95 95 0 95 0 0 95 0 95 -95 0 -95 0 0 -95z"/>
<path d="M1689 2507 c-51 -15 -104 -49 -119 -78 -17 -31 -25 -22 -22 26 l4 45
-96 0 -96 0 0 -395 0 -395 95 0 95 0 0 253 c0 223 3 257 19 292 66 147 260
135 306 -18 12 -39 15 -105 15 -289 l0 -238 90 0 90 0 0 274 c0 307 -9 365
-70 438 -63 77 -204 115 -311 85z"/>
<path d="M2510 2505 c-110 -31 -199 -108 -248 -213 -24 -52 -26 -69 -27 -182
0 -120 1 -128 32 -192 63 -134 173 -207 323 -216 161 -9 286 46 355 156 19 31
35 62 35 69 0 10 -25 13 -96 13 -92 0 -97 -1 -117 -26 -56 -72 -218 -73 -295
-1 -29 27 -62 89 -62 117 0 20 5 20 301 20 l302 0 -6 78 c-14 179 -102 308
-245 363 -75 27 -181 33 -252 14z m196 -164 c22 -10 54 -35 71 -55 30 -37 56
-100 45 -110 -3 -3 -97 -6 -209 -6 -187 0 -203 1 -203 18 1 27 35 95 62 119
55 51 162 67 234 34z"/>
<path d="M4593 2505 c-148 -41 -246 -159 -273 -327 -29 -184 55 -364 205 -441
55 -29 68 -31 160 -32 111 0 136 8 206 72 22 20 41 34 42 32 2 -2 0 -50 -3
-107 -6 -92 -10 -107 -36 -145 -42 -59 -95 -87 -168 -87 -102 0 -180 56 -201
143 l-7 27 -95 0 -95 0 6 -25 c33 -130 106 -224 214 -277 63 -31 74 -33 172
-33 94 0 111 3 165 28 114 53 201 166 224 292 7 36 11 215 11 467 l0 408 -96
0 -96 0 4 -45 c2 -25 1 -45 -1 -45 -2 0 -19 14 -39 31 -77 68 -195 93 -299 64z
m212 -174 c45 -20 91 -69 112 -118 20 -48 16 -170 -6 -218 -46 -99 -139 -146
-246 -123 -63 13 -137 82 -154 143 -39 142 23 291 136 325 48 14 116 10 158
-9z"/>
<path d="M5630 2501 c-33 -12 -68 -33 -88 -55 -18 -20 -34 -36 -37 -36 -3 0
-5 20 -5 45 l0 45 -90 0 -90 0 0 -395 0 -395 89 0 90 0 3 253 c3 248 3 253 29
302 63 123 222 126 286 6 22 -43 23 -51 23 -303 l0 -258 96 0 96 0 -4 288 c-4
267 -6 291 -26 343 -26 66 -80 124 -140 151 -64 29 -165 33 -232 9z"/>
<path d="M3046 2488 c4 -7 140 -185 301 -395 l294 -383 124 0 124 0 -302 393
-303 392 -123 3 c-97 2 -121 0 -115 -10z"/>
<path d="M3570 2348 l0 -153 123 121 c67 67 138 135 157 152 l35 32 -157 0
-158 0 0 -152z"/>
<path d="M3970 2105 l0 -395 95 0 95 0 0 395 0 395 -95 0 -95 0 0 -395z"/>
<path d="M3180 1855 l-147 -145 153 0 154 0 0 145 c0 80 -3 145 -6 145 -4 0
-73 -65 -154 -145z"/>
</g>
</svg>
